Coordinates																																									
version=1																																									
nRows=12																																									
nColumns=42																																									
inDegrees=yes																																									
																																									
"Units are S.I. units (second, meters, Newtons, ...)"																																									
Angles are in degrees.																																									
																																									
endheader																																									
time	pelvis_tx	pelvis_ty	pelvis_tz	pelvis_tilt	pelvis_list	pelvis_rotation	hip_flexion_r	hip_adduction_r	hip_rotation_r	knee_angle_r	ankle_angle_r	subtalar_angle_r	mtp_angle_r	hip_flexion_l	hip_adduction_l	hip_rotation_l	knee_angle_l	ankle_angle_l	subtalar_angle_l	mtp_angle_l	lumbar_extension	lumbar_bending	lumbar_rotation	ground_force_vx	ground_force_vy	ground_force_vz	ground_force_px	ground_force_py	ground_force_pz	ground_force_vx	ground_force_vy	ground_force_vz	ground_force_px	ground_force_py	ground_force_pz	ground_torque_x	ground_torque_y	ground_torque_z	ground_torque_x	ground_torque_y	ground_torque_z
0.62	0.005312	0.701079	0.237989	-17.296122	-1.839426	5.969414	44.293685	1.50124	-9.715583	-21.975413	4.368504	0	0	-1.25759	0.695044	-3.12175	-24.222007	9.963653	0	0	25.227543	0.548234	-5.841087	-29.368937	198.796585	4.770998	0.119453	-0.004288	0.265185	38.466835	142.98558	2.565217	-0.32275	0.000858	0.211567	0.002399	0.576748	-0.010745	-0.002456	1.985849	-0.004122
0.63	0.020514	0.702406	0.240795	-15.893686	-3.129692	5.221407	42.335585	3.85146	-8.376162	-23.087889	4.367932	0	0	-1.651554	-1.622728	-5.166354	-27.585493	6.452229	0	0	24.145496	1.729156	-5.454581	-38.078117	229.489166	0.439013	0.125803	-0.004489	0.266986	30.708822	108.834091	0.800845	-0.32179	0.000056	0.21171	0.002982	0.716843	-0.013355	-0.00208	1.681574	-0.00349
0.64	0.035609	0.70377	0.243309	-14.596764	-4.394718	4.631391	40.452888	6.058467	-7.239132	-24.142728	4.478162	0	0	-1.804148	-3.835229	-6.79053	-31.134741	3.057438	0	0	23.171985	2.850911	-5.192188	-45.810329	259.517456	-3.706568	0.13267	-0.004364	0.268453	22.55689	77.473343	-0.43495	-0.321481	-0.000456	0.212819	0.003254	0.782405	-0.014577	-0.001717	1.388472	-0.002882
0.65	0.050456	0.705155	0.245326	-13.495734	-5.570346	4.27315	38.70424	7.981877	-6.413242	-25.071148	4.736275	0	0	-1.565225	-5.812468	-7.788267	-34.831909	-0.04327	0	0	22.386549	3.839478	-5.089977	-51.796486	287.087311	-7.307896	0.139781	-0.004029	0.269615	14.915914	51.083046	-1.106462	-0.322024	-0.000684	0.215102	0.003233	0.777141	-0.014479	-0.001402	1.133502	-0.002353
0.66	0.064944	0.706562	0.246768	-12.634826	-6.623842	4.174709	37.103722	9.5602	-5.940439	-25.799081	5.146274	0	0	-0.845648	-7.49169	-8.10348	-38.645494	-2.708704	0	0	21.824046	4.656849	-5.146793	-55.784725	310.306824	-10.335246	0.146971	-0.003599	0.270532	8.487703	30.769194	-1.317345	-0.324203	-0.000636	0.218912	0.002997	0.720511	-0.013424	-0.001158	0.936111	-0.001943
0.67	0.079005	0.70799	0.247652	-12.029432	-7.542261	4.321638	35.646341	10.791001	-5.801871	-26.268959	5.682765	0	0	0.392011	-8.854094	-7.794757	-42.539846	-4.832813	0	0	21.491339	5.289698	-5.3306	-57.803097	327.699524	-12.678038	0.154152	-0.00316	0.271243	0	0	0	0	0	0	0.002591	0.622977	-0.011606	0	0	0
0.68	0.092605	0.709436	0.248062	-11.676171	-8.319524	4.66887	34.321082	11.704677	-5.934025	-26.453118	6.302009	0	0	2.139521	-9.900507	-6.988638	-46.466675	-6.346066	0	0	21.376773	5.736744	-5.587674	-58.06395	338.588226	-14.239474	0.16131	-0.002756	0.271777	0	0	0	0	0	0	0.002069	0.497442	-0.009268	0	0	0
0.69	0.10575	0.710912	0.248112	-11.547431	-8.950034	5.153557	33.101962	12.347344	-6.247227	-26.353202	6.9541	0	0	4.335667	-10.639766	-5.845563	-50.358469	-7.221077	0	0	21.445915	6.003353	-5.851411	-56.91082	343.099731	-15.106956	0.168489	-0.002401	0.272176	0	0	0	0	0	0	0.001502	0.361031	-0.006726	0	0	0
0.7	0.118483	0.712451	0.247919	-11.5905	-9.428952	5.709298	31.942326	12.769638	-6.648055	-25.991542	7.591651	0	0	6.870522	-11.08665	-4.531549	-54.130028	-7.477199	0	0	21.642489	6.100555	-6.057055	-54.710201	341.93161	-15.467722	0.175763	-0.002088	0.272475	0	0	0	0	0	0	0.000924	0.222209	-0.00414	0	0	0
0.71	0.130871	0.714093	0.247583	-11.744808	-9.754096	6.278563	30.790739	13.016531	-7.059584	-25.403063	8.174317	0	0	9.616028	-11.260369	-3.191431	-57.690291	-7.178224	0	0	21.905687	6.042644	-6.15797	-51.792717	336.04364	-15.563063	0.183191	-0.001804	0.272701	0	0	0	0	0	0	0.000352	0.084585	-0.001576	0	0	0
0.72	0.142981	0.715864	0.247172	-11.961239	-9.927418	6.818937	29.61083	13.12139	-7.432702	-24.629584	8.671056	0	0	12.458566	-11.182778	-1.932045	-60.955545	-6.422033	0	0	22.188447	5.845268	-6.133731	-48.427361	326.483429	-15.563232	0.190768	-0.001533	0.272878	0	0	0	0	0	0	-0.000209	-0.050147	0.000934	0	0	0
0.73	0.154875	0.717768	0.246721	-12.207157	-9.955283	7.302879	28.38553	13.105995	-7.747201	-23.715156	9.061825	0	0	15.310603	-10.87856	-0.821451	-63.856784	-5.325995	0	0	22.461589	5.525592	-5.986608	-44.795048	314.35672	-15.526594	0.198395	-0.001263	0.273009	0	0	0	0	0	0	-0.000746	-0.179444	0.003343	0	0	0
